<svg width="40" height="40" viewBox="0 0 40 40" fill="none" xmlns="http://www.w3.org/2000/svg">
<path d="M20 10.4C18.0904 10.4 16.2591 11.1586 14.9088 12.5088C13.5586 13.8591 12.8 15.6904 12.8 17.6V21.9032L11.9516 22.7516C11.7838 22.9194 11.6696 23.1332 11.6233 23.366C11.577 23.5987 11.6008 23.8399 11.6916 24.0592C11.7824 24.2784 11.9362 24.4658 12.1334 24.5977C12.3307 24.7295 12.5627 24.7999 12.8 24.8H27.2C27.4373 24.7999 27.6693 24.7295 27.8665 24.5977C28.0638 24.4658 28.2176 24.2784 28.3084 24.0592C28.3992 23.8399 28.423 23.5987 28.3767 23.366C28.3304 23.1332 28.2162 22.9194 28.0484 22.7516L27.2 21.9032V17.6C27.2 15.6904 26.4414 13.8591 25.0912 12.5088C23.7409 11.1586 21.9096 10.4 20 10.4ZM20 29.6C19.0452 29.6 18.1295 29.2207 17.4544 28.5456C16.7793 27.8704 16.4 26.9548 16.4 26H23.6C23.6 26.9548 23.2207 27.8704 22.5456 28.5456C21.8704 29.2207 20.9548 29.6 20 29.6Z" fill="#6B7280"/>
</svg>
