<svg width="40" height="40" viewBox="0 0 40 40" fill="none" xmlns="http://www.w3.org/2000/svg">
<path fillRule="evenodd" clipRule="evenodd" d="M17.6 12.8C16.327 12.8 15.1061 13.3057 14.2059 14.2059C13.3057 15.1061 12.8 16.327 12.8 17.6C12.8 18.873 13.3057 20.0939 14.2059 20.9941C15.1061 21.8943 16.327 22.4 17.6 22.4C18.873 22.4 20.0939 21.8943 20.9941 20.9941C21.8943 20.0939 22.4 18.873 22.4 17.6C22.4 16.327 21.8943 15.1061 20.9941 14.2059C20.0939 13.3057 18.873 12.8 17.6 12.8ZM10.4 17.6C10.3998 16.4668 10.6672 15.3497 11.1802 14.3393C11.6932 13.3289 12.4375 12.4539 13.3525 11.7854C14.2674 11.1169 15.3273 10.6739 16.4458 10.4922C17.5643 10.3105 18.7099 10.3955 19.7893 10.74C20.8688 11.0846 21.8518 11.6791 22.6582 12.4752C23.4646 13.2712 24.0717 14.2464 24.4302 15.3214C24.7887 16.3963 24.8884 17.5407 24.7212 18.6615C24.554 19.7822 24.1246 20.8477 23.468 21.7712L29.2484 27.5516C29.467 27.7779 29.5879 28.081 29.5852 28.3957C29.5825 28.7103 29.4563 29.0113 29.2338 29.2338C29.0113 29.4563 28.7103 29.5825 28.3957 29.5852C28.081 29.5879 27.7779 29.467 27.5516 29.2484L21.7724 23.4692C20.6952 24.2351 19.428 24.6898 18.1096 24.7833C16.7912 24.8769 15.4725 24.6057 14.298 23.9996C13.1234 23.3934 12.1384 22.4756 11.4509 21.3468C10.7633 20.218 10.3997 18.9217 10.4 17.6Z" fill="#6B7280"/>
</svg>
