<svg id="_003-laurel-wreath" data-name="003-laurel-wreath" xmlns="http://www.w3.org/2000/svg" width="23.286" height="23.378" viewBox="0 0 23.286 23.378">
  <path id="Path_84" data-name="Path 84" d="M143.232,91.362l-.478,2.787a.685.685,0,0,0,.994.722l2.5-1.316,2.5,1.316a.685.685,0,0,0,.994-.722l-.478-2.787,2.025-1.974a.685.685,0,0,0-.38-1.168l-2.8-.407-1.252-2.536a.685.685,0,0,0-1.228,0l-1.252,2.536-2.8.407a.685.685,0,0,0-.38,1.168Zm4.736-2.186,1.377.2-.988.963-1-.342ZM146.935,91.3l.992.339.236,1.374-1.227-.645Zm-.685-4.172.612,1.239-.612.825-.612-.825Zm-.685,5.24-1.227.645.236-1.374.992-.339Zm-1.033-3.192.609.821-1,.342-.988-.963Z" transform="translate(-134.607 -81.019)" fill="#c05bff"/>
  <path id="Path_85" data-name="Path 85" d="M23.116,11.327A4.946,4.946,0,0,0,24.284,7.9a.685.685,0,0,0-.646-.646,5.261,5.261,0,0,0-3,.811V6.448A4.72,4.72,0,0,0,22,3.424a4.946,4.946,0,0,0-1.6-3.25.685.685,0,0,0-.914,0,4.946,4.946,0,0,0-1.6,3.25,4.72,4.72,0,0,0,1.37,3.023V9.36a6.621,6.621,0,1,1-13.241,0V6.448a4.72,4.72,0,0,0,1.37-3.023A4.946,4.946,0,0,0,5.8.175a.685.685,0,0,0-.914,0,4.946,4.946,0,0,0-1.6,3.25,4.72,4.72,0,0,0,1.37,3.023V8.064a5.26,5.26,0,0,0-3-.811A.685.685,0,0,0,1,7.9a4.946,4.946,0,0,0,1.168,3.428A4.73,4.73,0,0,0,5.3,12.5a7.993,7.993,0,0,0,.992,1.7,5.235,5.235,0,0,0-2.743,1.558.685.685,0,0,0,0,.914,4.946,4.946,0,0,0,3.25,1.6,4.758,4.758,0,0,0,3.069-1.413q.258.1.524.175a2.953,2.953,0,0,0-.71,1.923v.228H8.991a1.6,1.6,0,0,0-1.6,1.6v1.233H6.252a.685.685,0,0,0,0,1.37H19.037a.685.685,0,0,0,0-1.37H17.9V20.775a1.6,1.6,0,0,0-1.6-1.6h-.685v-.228a2.953,2.953,0,0,0-.71-1.923q.266-.078.524-.175a4.758,4.758,0,0,0,3.069,1.413,4.946,4.946,0,0,0,3.25-1.6.685.685,0,0,0,0-.914A5.235,5.235,0,0,0,19,14.194a7.994,7.994,0,0,0,.991-1.7,4.73,4.73,0,0,0,3.124-1.17ZM3.141,10.358a2.982,2.982,0,0,1-.729-1.7,2.99,2.99,0,0,1,1.7.728,2.982,2.982,0,0,1,.729,1.7A2.99,2.99,0,0,1,3.141,10.358ZM4.654,3.424A2.982,2.982,0,0,1,5.338,1.71a2.99,2.99,0,0,1,.686,1.715,2.982,2.982,0,0,1-.684,1.715A2.99,2.99,0,0,1,4.654,3.424Zm2.14,13.47A2.982,2.982,0,0,1,5.08,16.21a2.99,2.99,0,0,1,1.715-.686,2.982,2.982,0,0,1,1.715.684,2.99,2.99,0,0,1-1.715.686Zm4.252,2.055a1.6,1.6,0,1,1,3.2,0v.228h-3.2Zm5.251,1.6a.229.229,0,0,1,.228.228v1.233H8.763V20.775a.229.229,0,0,1,.228-.228Zm3.912-4.338a2.99,2.99,0,0,1-1.715.686,2.982,2.982,0,0,1-1.715-.684,2.99,2.99,0,0,1,1.715-.686A2.982,2.982,0,0,1,20.209,16.208Zm.969-6.819a2.983,2.983,0,0,1,1.7-.729,2.982,2.982,0,0,1-.729,1.7,2.982,2.982,0,0,1-1.7.729A2.99,2.99,0,0,1,21.178,9.39ZM19.265,3.424a2.982,2.982,0,0,1,.684-1.715,2.99,2.99,0,0,1,.686,1.715,2.982,2.982,0,0,1-.684,1.715A2.99,2.99,0,0,1,19.265,3.424Z" transform="translate(-1.001 0)" fill="#c05bff"/>
</svg>
