<svg id="_002-medal" data-name="002-medal" xmlns="http://www.w3.org/2000/svg" width="16.894" height="23.378" viewBox="0 0 16.894 23.378">
  <path id="Path_82" data-name="Path 82" d="M87.828.393A.685.685,0,0,0,87.209,0H82.643a.685.685,0,0,0-.527.248L79.447,3.47,76.778.248A.685.685,0,0,0,76.25,0H71.684a.685.685,0,0,0-.527,1.122l4.552,5.5a2.054,2.054,0,0,0-.942,3.831l-3.219,5.576a.685.685,0,0,0,0,.685L75.2,23.035a.685.685,0,0,0,.593.342H83.1a.685.685,0,0,0,.593-.342l3.653-6.327a.685.685,0,0,0,0-.685l-3.219-5.576a2.054,2.054,0,0,0-.942-3.831l4.552-5.5a.685.685,0,0,0,.092-.728ZM73.141,1.37h2.787l2.629,3.174L77.164,6.226Zm12.82,15L82.7,22.008H76.189l-3.257-5.642,3.257-5.642H82.7Zm-2.177-7.7a.686.686,0,0,1-.685.685H75.794a.685.685,0,1,1,0-1.37H83.1A.686.686,0,0,1,83.784,8.669ZM81.407,6.615H78.62L82.965,1.37h2.787Z" transform="translate(-70.999 0)" fill="#c05bff"/>
  <path id="Path_83" data-name="Path 83" d="M165.952,266.3a.685.685,0,0,0-1.228,0l-.969,1.964-2.168.315a.685.685,0,0,0-.38,1.168l1.569,1.529-.37,2.159a.685.685,0,0,0,.994.722l1.939-1.019,1.939,1.019a.685.685,0,0,0,.994-.722l-.37-2.159,1.569-1.529a.685.685,0,0,0-.38-1.168l-2.168-.315Zm.734,4.247a.685.685,0,0,0-.2.606l.2,1.146-1.029-.541a.685.685,0,0,0-.637,0l-1.029.541.2-1.146a.685.685,0,0,0-.2-.606l-.833-.812,1.151-.167a.685.685,0,0,0,.516-.375l.514-1.043.515,1.043a.685.685,0,0,0,.516.375l1.151.167Z" transform="translate(-156.891 -253.773)" fill="#c05bff"/>
</svg>
