<svg id="_005-medal-1" data-name="005-medal-1" xmlns="http://www.w3.org/2000/svg" width="17.807" height="23.378" viewBox="0 0 17.807 23.378">
  <path id="Path_89" data-name="Path 89" d="M184.424,302a3.424,3.424,0,1,0,3.424,3.424A3.428,3.428,0,0,0,184.424,302Zm0,5.479a2.055,2.055,0,1,1,2.055-2.055A2.057,2.057,0,0,1,184.424,307.479Z" transform="translate(-175.521 -288.211)" fill="#c05bff"/>
  <path id="Path_90" data-name="Path 90" d="M78.56,2.442,75.821.159A.684.684,0,0,0,75.382,0H64.424a.684.684,0,0,0-.438.158l-2.74,2.283a.685.685,0,0,0-.147.882l5.349,8.787a6.164,6.164,0,1,0,6.91,0l5.349-8.787A.685.685,0,0,0,78.56,2.442ZM69.9,8.893,67.43,4.566h4.945Zm3.255-5.7H66.648L65.6,1.37h8.6Zm-10.582-.08,1.658-1.382,4.88,8.539-.524.917a6.111,6.111,0,0,0-.928.28ZM74.7,17.214A4.794,4.794,0,1,1,69.9,12.419,4.8,4.8,0,0,1,74.7,17.214Zm-2.553-5.742a6.121,6.121,0,0,0-1.9-.412l5.329-9.325L77.23,3.116Z" transform="translate(-60.999 0)" fill="#c05bff"/>
</svg>
