<svg id="_001-medal-2" data-name="001-medal-2" xmlns="http://www.w3.org/2000/svg" width="15.981" height="23.378" viewBox="0 0 15.981 23.378">
  <path id="Path_80" data-name="Path 80" d="M91.045,7.625V6.643L95.279,4.1a.685.685,0,0,0,.332-.587V1.37H96.3A.685.685,0,0,0,96.3,0H81.685a.685.685,0,0,0,0,1.37h.685V3.516A.685.685,0,0,0,82.7,4.1l4.233,2.54v.982a2.053,2.053,0,0,0,.817,1.639L86.7,10.316H84.148a.685.685,0,0,0-.685.685v2.553L81.657,15.36a.685.685,0,0,0,0,.969l1.805,1.805v2.553a.685.685,0,0,0,.685.685H86.7l1.805,1.805a.685.685,0,0,0,.969,0l1.805-1.805h2.553a.685.685,0,0,0,.685-.685V18.134l1.805-1.805a.685.685,0,0,0,0-.969l-1.805-1.805V11a.685.685,0,0,0-.685-.685H91.28L90.228,9.264A2.052,2.052,0,0,0,91.045,7.625ZM88.99,8.31a.686.686,0,0,1-.685-.685V6.94h1.37v.685A.686.686,0,0,1,88.99,8.31ZM87.81,5.57l-1.331-.8V1.37H91.5v3.4l-1.331.8Zm6.431-2.442-1.37.822V1.37h1.37ZM83.74,1.37h1.37V3.95l-1.37-.822ZM91,11.686h2.152v2.152a.685.685,0,0,0,.2.484l1.522,1.522-1.522,1.522a.685.685,0,0,0-.2.484V20H91a.685.685,0,0,0-.484.2L88.99,21.724,87.469,20.2a.685.685,0,0,0-.484-.2H84.832V17.85a.685.685,0,0,0-.2-.484L83.11,15.844l1.522-1.522a.685.685,0,0,0,.2-.484V11.686h2.152a.685.685,0,0,0,.484-.2L88.99,9.963l1.522,1.522A.685.685,0,0,0,91,11.686Z" transform="translate(-81)" fill="#c05bff"/>
  <path id="Path_81" data-name="Path 81" d="M181,275.424A3.424,3.424,0,1,0,184.424,272,3.428,3.428,0,0,0,181,275.424Zm5.479,0a2.055,2.055,0,1,1-2.055-2.055A2.057,2.057,0,0,1,186.479,275.424Z" transform="translate(-176.434 -259.581)" fill="#c05bff"/>
  <ellipse id="Ellipse_483" data-name="Ellipse 483" cx="0.899" cy="0.6" rx="0.899" ry="0.6" transform="translate(6.956 15.226)" fill="#c05bff"/>
</svg>
