<svg id="_004-laurel-wreath-1" data-name="004-laurel-wreath-1" xmlns="http://www.w3.org/2000/svg" width="23.286" height="23.378" viewBox="0 0 23.286 23.378">
  <path id="Path_86" data-name="Path 86" d="M23.116,11.327A4.946,4.946,0,0,0,24.284,7.9a.685.685,0,0,0-.646-.646,5.261,5.261,0,0,0-3,.811V6.448A4.72,4.72,0,0,0,22,3.424a4.946,4.946,0,0,0-1.6-3.25.685.685,0,0,0-.914,0,4.946,4.946,0,0,0-1.6,3.25,4.72,4.72,0,0,0,1.37,3.023V9.36a6.621,6.621,0,1,1-13.241,0V6.448a4.72,4.72,0,0,0,1.37-3.023A4.946,4.946,0,0,0,5.8.175a.685.685,0,0,0-.914,0,4.946,4.946,0,0,0-1.6,3.25,4.72,4.72,0,0,0,1.37,3.023V8.064a5.26,5.26,0,0,0-3-.811A.685.685,0,0,0,1,7.9a4.946,4.946,0,0,0,1.168,3.428A4.73,4.73,0,0,0,5.3,12.5a7.993,7.993,0,0,0,.992,1.7,5.235,5.235,0,0,0-2.743,1.558.685.685,0,0,0,0,.914,4.946,4.946,0,0,0,3.25,1.6,4.758,4.758,0,0,0,3.069-1.413q.258.1.524.175a2.953,2.953,0,0,0-.71,1.923v.228H8.991a1.6,1.6,0,0,0-1.6,1.6v1.233H6.252a.685.685,0,0,0,0,1.37H19.037a.685.685,0,0,0,0-1.37H17.9V20.775a1.6,1.6,0,0,0-1.6-1.6h-.685v-.228a2.953,2.953,0,0,0-.71-1.923q.266-.078.524-.175a4.758,4.758,0,0,0,3.069,1.413,4.946,4.946,0,0,0,3.25-1.6.685.685,0,0,0,0-.914A5.235,5.235,0,0,0,19,14.194a7.993,7.993,0,0,0,.991-1.7A4.73,4.73,0,0,0,23.116,11.327Zm-.24-2.666a2.982,2.982,0,0,1-.729,1.7,2.982,2.982,0,0,1-1.7.729,2.99,2.99,0,0,1,.728-1.7A2.983,2.983,0,0,1,22.876,8.661ZM19.949,1.71a2.99,2.99,0,0,1,.686,1.715,2.982,2.982,0,0,1-.684,1.715,2.99,2.99,0,0,1-.686-1.715,2.982,2.982,0,0,1,.684-1.715Zm-14.611,0a2.99,2.99,0,0,1,.686,1.715,2.982,2.982,0,0,1-.684,1.715,2.99,2.99,0,0,1-.686-1.715A2.982,2.982,0,0,1,5.338,1.71Zm-2.2,8.648a2.982,2.982,0,0,1-.729-1.7,2.99,2.99,0,0,1,1.7.728,2.982,2.982,0,0,1,.729,1.7A2.99,2.99,0,0,1,3.141,10.358Zm3.653,6.536A2.982,2.982,0,0,1,5.08,16.21a2.99,2.99,0,0,1,1.715-.686,2.982,2.982,0,0,1,1.715.684A2.99,2.99,0,0,1,6.794,16.894Zm9.731,3.881v1.233H8.763V20.775a.229.229,0,0,1,.228-.228H16.3A.229.229,0,0,1,16.525,20.775Zm-5.479-1.6v-.228a1.6,1.6,0,1,1,3.2,0v.228Zm7.448-2.283a2.982,2.982,0,0,1-1.715-.684,2.99,2.99,0,0,1,1.715-.686,2.982,2.982,0,0,1,1.715.684A2.99,2.99,0,0,1,18.494,16.894Z" transform="translate(-1.001 0)" fill="#c05bff"/>
  <path id="Path_87" data-name="Path 87" d="M146.251,100.5A5.251,5.251,0,1,0,141,95.251,5.257,5.257,0,0,0,146.251,100.5Zm0-9.132a3.881,3.881,0,1,1-3.881,3.881A3.885,3.885,0,0,1,146.251,91.37Z" transform="translate(-134.608 -85.891)" fill="#c05bff"/>
  <path id="Path_88" data-name="Path 88" d="M227.067,146.37h.193v3.424a.685.685,0,1,0,1.37,0v-4.109a.685.685,0,0,0-.685-.685h-.878a.685.685,0,0,0,0,1.37Z" transform="translate(-216.091 -138.379)" fill="#c05bff"/>
</svg>
